<mxfile host="65bd71144e">
    <diagram id="-E_qBhfaIDHjU9Co4i7N" name="Page-1">
        <mxGraphModel dx="1415" dy="744" grid="1" gridSize="10" guides="1" tooltips="1" connect="1" arrows="1" fold="1" page="1" pageScale="1" pageWidth="850" pageHeight="1100" math="0" shadow="0">
            <root>
                <mxCell id="0"/>
                <mxCell id="1" parent="0"/>
                <mxCell id="2" value="users" style="rounded=0;whiteSpace=wrap;html=1;fillColor=#0050ef;fontColor=#ffffff;strokeColor=#001DBC;" vertex="1" parent="1">
                    <mxGeometry x="240" y="80" width="80" height="40" as="geometry"/>
                </mxCell>
                <mxCell id="3" value="firstname" style="ellipse;whiteSpace=wrap;html=1;" vertex="1" parent="1">
                    <mxGeometry x="360" y="140" width="80" height="40" as="geometry"/>
                </mxCell>
                <mxCell id="4" value="lastname" style="ellipse;whiteSpace=wrap;html=1;" vertex="1" parent="1">
                    <mxGeometry x="480" y="140" width="80" height="40" as="geometry"/>
                </mxCell>
                <mxCell id="5" value="email" style="ellipse;whiteSpace=wrap;html=1;" vertex="1" parent="1">
                    <mxGeometry x="600" y="140" width="80" height="40" as="geometry"/>
                </mxCell>
                <mxCell id="6" value="username" style="ellipse;whiteSpace=wrap;html=1;" vertex="1" parent="1">
                    <mxGeometry x="358.75" y="300" width="80" height="40" as="geometry"/>
                </mxCell>
                <mxCell id="9" value="positionID" style="ellipse;whiteSpace=wrap;html=1;" vertex="1" parent="1">
                    <mxGeometry x="960" y="140" width="82.5" height="40" as="geometry"/>
                </mxCell>
                <mxCell id="10" value="position" style="rounded=0;whiteSpace=wrap;html=1;" vertex="1" parent="1">
                    <mxGeometry x="962.5" y="200" width="80" height="40" as="geometry"/>
                </mxCell>
                <mxCell id="11" value="lane" style="ellipse;whiteSpace=wrap;html=1;" vertex="1" parent="1">
                    <mxGeometry x="1082.5" y="140" width="82.5" height="40" as="geometry"/>
                </mxCell>
                <mxCell id="15" value="teamID" style="ellipse;whiteSpace=wrap;html=1;" vertex="1" parent="1">
                    <mxGeometry x="960" y="260" width="82.5" height="40" as="geometry"/>
                </mxCell>
                <mxCell id="16" value="team" style="rounded=0;whiteSpace=wrap;html=1;" vertex="1" parent="1">
                    <mxGeometry x="962.5" y="320" width="80" height="40" as="geometry"/>
                </mxCell>
                <mxCell id="22" value="userID" style="ellipse;whiteSpace=wrap;html=1;fillColor=#a20025;fontColor=#ffffff;strokeColor=#6F0000;" vertex="1" parent="1">
                    <mxGeometry x="240" y="140" width="80" height="40" as="geometry"/>
                </mxCell>
                <mxCell id="23" value="userID" style="ellipse;whiteSpace=wrap;html=1;fillColor=#a20025;fontColor=#ffffff;strokeColor=#6F0000;" vertex="1" parent="1">
                    <mxGeometry x="238.75" y="300" width="80" height="40" as="geometry"/>
                </mxCell>
                <mxCell id="24" value="position" style="ellipse;whiteSpace=wrap;html=1;" vertex="1" parent="1">
                    <mxGeometry x="478.75" y="300" width="80" height="40" as="geometry"/>
                </mxCell>
                <mxCell id="25" value="game" style="rounded=0;whiteSpace=wrap;html=1;fillColor=#0050ef;fontColor=#ffffff;strokeColor=#001DBC;" vertex="1" parent="1">
                    <mxGeometry x="240" y="240" width="80" height="40" as="geometry"/>
                </mxCell>
                <mxCell id="26" value="team" style="rounded=0;whiteSpace=wrap;html=1;fillColor=#0050ef;fontColor=#ffffff;strokeColor=#001DBC;" vertex="1" parent="1">
                    <mxGeometry x="240" y="400" width="80" height="40" as="geometry"/>
                </mxCell>
                <mxCell id="29" value="teamname" style="ellipse;whiteSpace=wrap;html=1;" vertex="1" parent="1">
                    <mxGeometry x="360" y="460" width="80" height="40" as="geometry"/>
                </mxCell>
                <mxCell id="30" value="teamID" style="ellipse;whiteSpace=wrap;html=1;fillColor=#60a917;fontColor=#ffffff;strokeColor=#2D7600;" vertex="1" parent="1">
                    <mxGeometry x="720" y="300" width="80" height="40" as="geometry"/>
                </mxCell>
                <mxCell id="31" value="teamID" style="ellipse;whiteSpace=wrap;html=1;fillColor=#60a917;fontColor=#ffffff;strokeColor=#2D7600;" vertex="1" parent="1">
                    <mxGeometry x="240" y="460" width="80" height="40" as="geometry"/>
                </mxCell>
                <mxCell id="32" value="teamelo" style="ellipse;whiteSpace=wrap;html=1;" vertex="1" parent="1">
                    <mxGeometry x="480" y="460" width="80" height="40" as="geometry"/>
                </mxCell>
                <mxCell id="35" value="elo" style="ellipse;whiteSpace=wrap;html=1;" vertex="1" parent="1">
                    <mxGeometry x="600" y="300" width="80" height="40" as="geometry"/>
                </mxCell>
            </root>
        </mxGraphModel>
    </diagram>
</mxfile>